# xmcd
#
# Track frame offsets:
#	150
#	10313
#	24563
#	39561
#	50049
#	64367
#	81902
#	101314
#	116093
#	130355
#	150596
#	161678
#	173220
#	188461
#	199437
#	212964
#	225437
#	237355
#	250798
#	263798
#	284433
#
# Disc length: 4091 seconds
#
# Revision: 1
# Processed by: cddbd v1.5.2PL0 Copyright (c) Steve Scherf et al.
# Submitted via: EasyCDDAExtractor 16.1.0.1
#
DISCID=2b0ff915
DTITLE=Золотой саксофон
DYEAR=2004
DGENRE=Musical
TTITLE0=Ты значишь для меня все
TTITLE1=Ветряные мельницы твоего сознания
TTITLE2=Эммануэль
TTITLE3=Как прекрасен мир
TTITLE4=Я не могу уснуть один
TTITLE5=Чувства
TTITLE6=Лили была здесь
TTITLE7=Райская тема
TTITLE8=Я звоню, чтобы сказать люблю
TTITLE9=Капли любви
TTITLE10=Песня шануки
TTITLE11=Летнее время
TTITLE12=Ты не знаешь сколько можно
TTITLE13=Мамми блю
TTITLE14=Абразам
TTITLE15=Перфидия
TTITLE16=Розовая пантера
TTITLE17=Подмосковные вечера
TTITLE18=Ностальгия
TTITLE19=Билли Джин
TTITLE20=Лети. малиновка, лети
EXTD=YEAR: 2004
EXTT0=
EXTT1=
EXTT2=
EXTT3=
EXTT4=
EXTT5=
EXTT6=
EXTT7=
EXTT8=
EXTT9=
EXTT10=
EXTT11=
EXTT12=
EXTT13=
EXTT14=
EXTT15=
EXTT16=
EXTT17=
EXTT18=
EXTT19=
EXTT20=
PLAYORDER=
